<svg xmlns="http://www.w3.org/2000/svg" viewBox="0 0 350.12 273.79"><g id="Layer_2" data-name="Layer 2"><g id="Layer_1-2" data-name="Layer 1"><path d="M136.05,273.79c1.32-26.08,14.86-43.28,38.44-53.29,15-6.37,29.92-12.9,44.65-19.84,5-2.35,9.31-6.16,14.05-9.39-4.22-6.24-8.41-11.61-11.71-17.49-5.47-9.75-7.55-20.61-8.25-31.64s-1-22-1.2-32.95a106.9,106.9,0,0,0-9-42.26c5-.62,9.41-1.67,13.75-1.57,8.62.2,17.25.81,25.84,1.7,3.71.39,5.64.06,6.62-4.16a200,200,0,0,0,4.94-49.06c-.05-3.11-1.23-4.15-4.4-4.55C219.5,5.45,189.19,8.05,158.9,8c-4.93,0-7,2.82-8.12,7.17-2.86,10.6-8.35,19.23-19,23.54-11.13,4.49-21.59,2.26-30.44-5-7.78-6.42-15.22-6.64-24-3-25,10.46-49.93,21.18-72.8,36A22.23,22.23,0,0,1,.67,68.32L0,67.14c13.29-8.68,26.1-18.27,40-25.79,14.71-8,30.5-13.91,45.79-20.79,4.83-2.17,8.54-1.07,12.7,2.33A59,59,0,0,0,114.2,32.3c11,4.28,21.41-.13,26.77-10.78a51.68,51.68,0,0,0,4.56-12.64c1-5,3.7-7,8.51-7.15C169.68,1.2,185.39-.68,200.93.26c30.2,1.82,60.63,3.31,90.38,8.39,43,7.34,53.21,51.09,41.61,79.13-3.5,8.47-9.66,14.54-17.09,19.53-3,2-6,4.12-9.63,6.64,1.62.65,2.68,1.17,3.8,1.52,37.07,11.48,48.21,49.45,34.42,79.61-10.66,23.34-30.11,34.63-54.59,35.81-33.23,1.61-66.57,1.61-99.86,1.55-25-.05-44,12.69-52.12,36.46C137.29,270.54,136.65,272.16,136.05,273.79ZM222.38,118l-1.25.06c0,10-.56,20,.13,29.85,1.06,14.94,6.46,28.19,18.31,38.06,1.81,1.51,4.39,3.06,6.57,3,10.29-.34,20.61-.79,30.81-2.1,6.62-.85,12.9-3.6,16.5-9.93,10.16-17.91-.16-36.8-20.77-37.89-15.14-.79-30.28-1.46-45.43-1.87-4-.11-5.19-1.5-4.94-5.32C222.61,127.26,222.38,122.63,222.38,118Zm18.26-22v-.33c5.65,0,11.43.73,16.93-.19,6.43-1.07,13.21-2.53,18.78-5.7,8.29-4.71,10.41-17.12,6.23-27.89-3.85-9.9-11.78-12.06-21.65-12.85-.79-.06-2.25,1.7-2.52,2.83-1.24,5.17-2.08,10.43-3.22,15.63C253,77.72,255,76,245.06,74.5c-7-1.07-14.18-1.47-21.28-2.09-3.07-.27-4.57,1.07-4.46,4.37.18,5,.15,10,0,15-.07,3.11,1,4.49,4.32,4.35C229.32,95.88,235,96.05,240.64,96.05Z"/><path d="M71.37,261.38c-8.75-9.71-14.58-20.81-16.43-33.51-3.6-24.7-6.74-49.48-10.07-74.23C42.79,138.15,37,120.86,30.5,111.72c-2.65,3.33-5.16,6.5-7.69,9.66a79.59,79.59,0,0,1-8,9c6.77-13.69,13.59-27.31,14.23-43.18a88,88,0,0,1,18.24,26c9,19.68,10.92,40.68,11.49,61.91.61,22.64.92,45.3,7,67.37C67.54,248.84,69.5,255.1,71.37,261.38Z"/></g></g></svg>